<svg xmlns="http://www.w3.org/2000/svg" xmlns:xlink="http://www.w3.org/1999/xlink" style="display:none"><symbol id="icon-circle-cut" viewBox="0 0 603.5 609.1"><path class="st0" d="M97.5 313.3c3 .4 19.5 8.4 19.5 2.7.1-5 0-5.3-5.2-5.4-2.7 0-5.1-1.5-8-1.1-2.3 0-6.6 2.7-6.9-.8-.8-13.6-.2-27.1 1.5-40.6 5.9-46.1 31.5-109.7 72.1-134.5 1.8-.3 3.9-.8 5.3-2.7 1-1.3 3.1-.5 4.7-1.3 1.4-.7 2.8-1.3 4.1-2.3.6-.5 1.3-1 2-1 3 .2 5.1-1.5 7.2-3.2 3.3-2.5 7.5-2.4 10.9-4.6 2.2-2.4 4.5.2 6.6-2.2 1.7-1.6 4.6-1.7 5.3-4.5.6-.5 2.4.3 2.8-.9 2.4-5.6 6.4 3.3 16.4-.5 5.5.1 10.7-4.7 15.9-3 3.5 1.5 6.7.6 9.6-1.1 2.4-1.6 5.5-.8 7.5-3.2 1.4-1.8 3.4-.7 5.1-.6 3.8.8 7.2-1.8 11.1-1.6 2.7-.1 4.4-1.7 6-3.6.9-1.1 2.5 0 3.8-.6.5-.2 1.3 0 1.6-.4 3.2-3.4 7.7-2.1 11.6-3.2 8.2-3.5 16.4-9.7 25.7-8.5 5 4.1 11.7-.6 17.4 1.3 5.7 2.7 9.4-4 15-2.4 8.7.5 17.1-4.8 26.1-.9 56.6 19.1 104.8 60.5 131 114.4 2.1 4.8 17.2 35.3 11.5 35.3-6 1.7-10.3 7.6-17 6.9-.7-.1-1.4.3-2.2.5 4.8 4 10-2.3 13.9 1.8 2.5 2.8 6.2 4.2 10 4.8.9-.1 1.5 1.2 1.8 2.4 4 18.4 5.6 37.2 4.8 56-.9 25-5.9 49.3-14.9 72.6-.7 1.8-4 2.8-5.7 1.6-3-2.2-6.4-2.6-10-2.2-4.7 0-9.4-1.1-13.8-2.3-4.4-.1 8.3 11.6 10.5 12 6.1 6.1 14 3.8 11.4 8.5-32.4 66.4-98 114.6-171.5 123.9-16.9 3-4.8-2.1-19.9-4.8-3-.9-6-2.4-9.3-2.1-5.7.4-8.4-7-14.4-5.6-2.4.3-4.7-1.1-7-.9-2.5 1.7-4.5.1-6.2-1.2-3.2-2.5-7.4-1.5-10.8-3.7-4.6-1.8-5.8 2.4-10.2-.4-.5-.1-1.1-.6-1.6-.4-4.2 1.8-7.3-1.8-11.1-2-3.8-.7-8 .5-11.9-.1-3.9.6-7.9-.9-11.6-2.4-1.1-.3-2.6-.6-2.9-1.7-1-3.6-4.6-3.7-7-4.8-5.7-1.2-9.8-7.1-15.7-6.6-2.5.1-4.7.3-6.8-1.8-1.4-1.5-3.8-2.2-5.9-2.3-3.5-.1-6.3-2.8-9.7-2.7-53.7-29-88.8-102.1-92.5-162z"/></symbol><symbol id="icon-logo-face"><path d="M73.508.95C24.345 1.891-1.536 42.722.071 78c1.715 37.663 31.462 73.412 78.98 71.728 38.119-1.35 71.637-36.661 70.238-74.4C147.685 32.037 114.687-.35 73.508.95zm2.509 140.143c-32.517.342-66.184-24.804-66.822-63.656-.542-33.012 22.261-66.1 64.278-67.405 36.724-1.14 65.758 28.418 66.764 64.639.964 34.732-27.849 65.248-64.22 66.422z" fill="#FFF"/><path d="M56.752 74.266c1.09-.498 2.434-1.16 2.044-2.64-.368-1.4-1.774-1.496-3.016-1.41-2.122.146-4.271.2-6.351.597-6.533 1.246-12.705.404-18.489-2.9-.84-.481-2.82-.583-1.298-2.433 1.862-2.262 5.597-2.1 7.225.326 3.57 5.32 6.523 5.841 11.482 1.602 1.837-1.57 3.281-1.857 5.222-.507 1.759 1.225 3.67 2.2 5.862 2.37 1.267.1 2.624-.105 3.143-1.367.584-1.422-.603-2.282-1.669-2.855-2.947-1.581-5.863-3.278-8.956-4.518-9.767-3.916-19.106-2.97-28.59 1.748-5.704 2.837 1.164 6.502-1.485 9.175-.154.155.479 1.479 1.022 1.824.543.346 1.645.458 2.13.127 2.597-1.772 4.826-.585 7.236.464 3.944 1.718 8.12 2.55 12.918 2.59 3.633-.225 7.75-.446 11.57-2.193zM126.485 64.444c-12.813-8.113-25.195-5.304-37.404 1.5-.93.518-1.92 1.22-1.493 2.495.396 1.183 1.541 1.473 2.629 1.347 2.586-.298 5.072-1.03 7.32-2.37 1.893-1.129 3.245-.817 4.717.893 3.419 3.974 7.572 4.181 10.489.121 3.123-4.344 5.872-2.821 9.847.026-8.009 2.975-15.003 6.522-23.036 2.86-1.547-.705-3.585-.413-5.398-.424-1.11-.007-2.136.387-2.125 1.825.008 1.078.638 1.612 1.609 1.908 8.206 2.496 16.397 5.014 24.746.442 1.043-.57 2.558-1.439 3.369-1.079 4.579 2.034 6.747 2.566 7.068-4.223.15-3.18-.316-4.041-2.338-5.321zM104.329 101.504c-2.408 6.23-7.266 8.02-13.333 8.379-11.8.7-23.54-.42-35.303-.871-3.304-.127-6.021-1.512-8.463-3.902-2.07-2.028-1.444-7.292-5.35-6.267-2.525.661-4.281 4.31-6.335 6.661a8.043 8.043 0 00-1.164 1.928c-.83 1.798-.495 3.58.254 5.304.523 1.202 1.48 1.953 2.804 2.017 1.364.066 1.696-1.144 2.132-2.062 3.042-6.408 2.987-6.316 9.413-3.697 11.055 4.505 22.232 8.429 34.516 5.897 5.841-1.204 11.239-3.713 16.864-5.55 5.907-1.928 5.927-1.926 7.999 3.965.409 1.163.596 2.468 2.174 2.52 1.372.046 2.338-.874 2.908-1.913.562-1.023.686-2.287.732-2.455.533-5.392-3.925-6.775-5.394-10.03-1.273-2.824-3.342-2.8-4.454.076z" fill="#FFF"/><path d="M102.469 113.045c-3.59 1.232-7.16 2.526-10.775 3.672-9.439 2.993-18.863 4.122-28.683 1.239-5.843-1.716-11.441-4.077-17.287-5.713-1.21-.338-2.904-1.131-3.652.551-.786 1.765.94 2.405 2.12 2.906 4.65 1.976 8.747 4.89 13.042 7.472 4.902 2.945 10.155 4.816 15.925 5.022 11.75-.289 21.367-6.417 31.346-11.52 1.086-.555 1.893-1.771 1.185-3.084-.742-1.379-2.037-.952-3.221-.545zM70.023 96.315c-4.592-1.316-8.009-2.794-9.461-7.624-.333-1.107-1.633-2.007-2.508.058-1.694 3.997 1.832 10.392 6.113 10.696 3.025.214 5.266.68 5.25 4.565-.012 3.013 2.43 4.085 5.064 4.089 2.55.003 5.004-.647 4.957-3.975-.054-3.766 2.51-3.795 5.212-4.054 5.285-.506 8.536-7.23 5.328-12.486-2.312 5.526-6.27 7.45-11.269 9.438-3.966 1.577-5.584.182-8.686-.707zM90.039 56.627c-.951 1.54-1.947 3.458-.075 4.902 1.299 1.001 2.751.582 3.938-.31 3.648-.276 6.938-1.816 10.274-2.996 4.23-1.497 8.597-.44 13.928-.548-3.777-4.119-11.936-4.527-18.367-2.43 6.183-5.654 12.271-5.982 19.509-1.277 1.87 1.216 3.652 2.888 6.126 2.668 1.699-.151 3.479-.464 2.804-3.213-.219-.3-.511-.845-.933-1.255-2.455-2.388-5.545-3.698-8.674-4.868-8.506-3.181-23.911 1.85-28.53 9.327zM28.643 45.15c2.543-2.202 5.202-4.208 8.172-5.79 6.448-3.433 11.361-2.756 16.568 2.265.877.845 1.757 1.69 2.677 2.485 1.946 1.683 4.44 3.275 6.356.891 1.707-2.123-.326-4.283-2.114-5.75-5.035-4.133-10.949-5.798-17.38-5.863-6.836-.118-13.019 2.512-17.861 7.75-1.167 1.263-3.144 2.743-1.334 4.617 1.537 1.591 3.487.632 4.916-.605z" fill="#FFF"/><path d="M70.211 84.512c-1.043 4.836-.539 5.503 4.364 5.46 4.345-.038 5.659-.713 5.097-2.91-1.252-4.903-1.532-9.922-2.125-14.902-.185-1.554-.57-2.61-2.35-2.72-1.902-.12-2.175 1.115-2.451 2.56-.798 4.18-1.643 8.35-2.535 12.512zM41.66 51.934c-2.516-.066-4.016.02-5.36.902-.75.492-1.767.846-1.629 1.937.136 1.066 1.213 1.508 2.026 1.427 6.925-.697 13.022 2.25 19.357 4.194 1.044.321 2.575.977 3.07-.717.337-1.159-.722-1.878-1.688-2.4a50.822 50.822 0 00-15.776-5.343zM80.164 60.243c2.178-.004 1.871-1.9 1.864-3.355-.008-1.426.417-3.383-1.765-3.395-2.039-.012-1.84 1.957-2.106 3.424.27 1.334-.144 3.33 2.007 3.326zM71.027 59.987c2.248.042 1.959-1.926 2.023-3.365.059-1.299.362-3.172-1.559-3.176-1.968-.005-2.022 1.894-2.2 3.49.19 1.202-.247 3.014 1.736 3.05z" fill="#FFF"/></symbol></svg>